<?xml version="1.0" standalone="no"?>
<!DOCTYPE svg PUBLIC "-//W3C//DTD SVG 20010904//EN"
 "http://www.w3.org/TR/2001/REC-SVG-20010904/DTD/svg10.dtd">
<svg version="1.0" xmlns="http://www.w3.org/2000/svg"
 width="320.000000pt" height="320.000000pt" viewBox="0 0 320.000000 320.000000"
 preserveAspectRatio="xMidYMid meet">
<metadata>
Created by potrace 1.11, written by Peter Selinger 2001-2013
</metadata>
<g transform="translate(0.000000,320.000000) scale(0.100000,-0.100000)"
fill="#000000" stroke="none">
<path d="M841 2629 c-56 -10 -183 -61 -257 -104 -127 -74 -234 -199 -284 -328
-78 -202 -57 -413 69 -691 30 -67 165 -276 230 -356 122 -151 358 -367 544
-496 196 -136 448 -304 457 -304 9 0 261 168 457 304 186 129 422 345 544 496
49 60 191 274 219 330 13 25 42 97 65 160 148 402 21 746 -340 920 -128 62
-158 70 -285 76 -204 10 -385 -58 -516 -193 -39 -41 -86 -100 -105 -133 -19
-33 -36 -59 -39 -59 -3 0 -21 27 -40 60 -136 238 -424 365 -719 318z"/>
</g>
</svg>
